<mxfile host="app.diagrams.net" agent="Mozilla/5.0 (Windows NT 10.0; Win64; x64) AppleWebKit/537.36 (KHTML, like Gecko) Chrome/128.0.0.0 YaBrowser/24.10.0.0 Safari/537.36" version="24.8.3">
  <diagram name="Страница — 1" id="OBcoCSP-B3DfKh5aNd8Q">
    <mxGraphModel dx="1185" dy="635" grid="1" gridSize="10" guides="1" tooltips="1" connect="1" arrows="1" fold="1" page="1" pageScale="1" pageWidth="827" pageHeight="1169" math="0" shadow="0">
      <root>
        <mxCell id="0" />
        <mxCell id="1" parent="0" />
        <mxCell id="9CqOGc1lMeXhtPVuXy3s-13" style="edgeStyle=orthogonalEdgeStyle;rounded=0;orthogonalLoop=1;jettySize=auto;html=1;entryX=1;entryY=0.5;entryDx=0;entryDy=0;" edge="1" parent="1" source="9CqOGc1lMeXhtPVuXy3s-1" target="9CqOGc1lMeXhtPVuXy3s-2">
          <mxGeometry relative="1" as="geometry" />
        </mxCell>
        <mxCell id="9CqOGc1lMeXhtPVuXy3s-18" style="edgeStyle=orthogonalEdgeStyle;rounded=0;orthogonalLoop=1;jettySize=auto;html=1;entryX=0.5;entryY=0;entryDx=0;entryDy=0;" edge="1" parent="1" source="9CqOGc1lMeXhtPVuXy3s-1" target="9CqOGc1lMeXhtPVuXy3s-3">
          <mxGeometry relative="1" as="geometry" />
        </mxCell>
        <mxCell id="9CqOGc1lMeXhtPVuXy3s-1" value="E0; 0,0,0" style="ellipse;whiteSpace=wrap;html=1;aspect=fixed;" vertex="1" parent="1">
          <mxGeometry x="280" y="120" width="80" height="80" as="geometry" />
        </mxCell>
        <mxCell id="9CqOGc1lMeXhtPVuXy3s-14" style="edgeStyle=orthogonalEdgeStyle;rounded=0;orthogonalLoop=1;jettySize=auto;html=1;" edge="1" parent="1" source="9CqOGc1lMeXhtPVuXy3s-2" target="9CqOGc1lMeXhtPVuXy3s-1">
          <mxGeometry relative="1" as="geometry" />
        </mxCell>
        <mxCell id="9CqOGc1lMeXhtPVuXy3s-17" style="edgeStyle=orthogonalEdgeStyle;rounded=0;orthogonalLoop=1;jettySize=auto;html=1;entryX=0.5;entryY=0;entryDx=0;entryDy=0;" edge="1" parent="1" source="9CqOGc1lMeXhtPVuXy3s-2" target="9CqOGc1lMeXhtPVuXy3s-5">
          <mxGeometry relative="1" as="geometry" />
        </mxCell>
        <mxCell id="9CqOGc1lMeXhtPVuXy3s-2" value="E1; 0,1,0" style="ellipse;whiteSpace=wrap;html=1;aspect=fixed;" vertex="1" parent="1">
          <mxGeometry x="120" y="120" width="80" height="80" as="geometry" />
        </mxCell>
        <mxCell id="9CqOGc1lMeXhtPVuXy3s-19" style="edgeStyle=orthogonalEdgeStyle;rounded=0;orthogonalLoop=1;jettySize=auto;html=1;entryX=0.5;entryY=1;entryDx=0;entryDy=0;" edge="1" parent="1" source="9CqOGc1lMeXhtPVuXy3s-3" target="9CqOGc1lMeXhtPVuXy3s-1">
          <mxGeometry relative="1" as="geometry" />
        </mxCell>
        <mxCell id="9CqOGc1lMeXhtPVuXy3s-29" style="edgeStyle=orthogonalEdgeStyle;rounded=0;orthogonalLoop=1;jettySize=auto;html=1;entryX=0.5;entryY=0;entryDx=0;entryDy=0;" edge="1" parent="1" source="9CqOGc1lMeXhtPVuXy3s-3" target="9CqOGc1lMeXhtPVuXy3s-4">
          <mxGeometry relative="1" as="geometry" />
        </mxCell>
        <mxCell id="9CqOGc1lMeXhtPVuXy3s-3" value="E2; 1,0,0" style="ellipse;whiteSpace=wrap;html=1;aspect=fixed;" vertex="1" parent="1">
          <mxGeometry x="280" y="260" width="80" height="80" as="geometry" />
        </mxCell>
        <mxCell id="9CqOGc1lMeXhtPVuXy3s-27" style="edgeStyle=orthogonalEdgeStyle;rounded=0;orthogonalLoop=1;jettySize=auto;html=1;entryX=0.5;entryY=1;entryDx=0;entryDy=0;" edge="1" parent="1" source="9CqOGc1lMeXhtPVuXy3s-4" target="9CqOGc1lMeXhtPVuXy3s-3">
          <mxGeometry relative="1" as="geometry" />
        </mxCell>
        <mxCell id="9CqOGc1lMeXhtPVuXy3s-36" style="edgeStyle=orthogonalEdgeStyle;rounded=0;orthogonalLoop=1;jettySize=auto;html=1;entryX=0.5;entryY=0;entryDx=0;entryDy=0;" edge="1" parent="1" source="9CqOGc1lMeXhtPVuXy3s-4" target="9CqOGc1lMeXhtPVuXy3s-7">
          <mxGeometry relative="1" as="geometry" />
        </mxCell>
        <mxCell id="9CqOGc1lMeXhtPVuXy3s-51" style="rounded=0;orthogonalLoop=1;jettySize=auto;html=1;entryX=1;entryY=1;entryDx=0;entryDy=0;" edge="1" parent="1" source="9CqOGc1lMeXhtPVuXy3s-4" target="9CqOGc1lMeXhtPVuXy3s-2">
          <mxGeometry relative="1" as="geometry" />
        </mxCell>
        <mxCell id="9CqOGc1lMeXhtPVuXy3s-4" value="E3; 1,0,1" style="ellipse;whiteSpace=wrap;html=1;aspect=fixed;" vertex="1" parent="1">
          <mxGeometry x="280" y="400" width="80" height="80" as="geometry" />
        </mxCell>
        <mxCell id="9CqOGc1lMeXhtPVuXy3s-23" style="edgeStyle=orthogonalEdgeStyle;rounded=0;orthogonalLoop=1;jettySize=auto;html=1;entryX=0.5;entryY=1;entryDx=0;entryDy=0;" edge="1" parent="1" source="9CqOGc1lMeXhtPVuXy3s-5" target="9CqOGc1lMeXhtPVuXy3s-2">
          <mxGeometry relative="1" as="geometry" />
        </mxCell>
        <mxCell id="9CqOGc1lMeXhtPVuXy3s-24" style="edgeStyle=orthogonalEdgeStyle;rounded=0;orthogonalLoop=1;jettySize=auto;html=1;entryX=0.5;entryY=0;entryDx=0;entryDy=0;" edge="1" parent="1" source="9CqOGc1lMeXhtPVuXy3s-5" target="9CqOGc1lMeXhtPVuXy3s-6">
          <mxGeometry relative="1" as="geometry" />
        </mxCell>
        <mxCell id="9CqOGc1lMeXhtPVuXy3s-47" style="edgeStyle=orthogonalEdgeStyle;rounded=0;orthogonalLoop=1;jettySize=auto;html=1;entryX=0;entryY=0.5;entryDx=0;entryDy=0;" edge="1" parent="1" source="9CqOGc1lMeXhtPVuXy3s-5" target="9CqOGc1lMeXhtPVuXy3s-3">
          <mxGeometry relative="1" as="geometry" />
        </mxCell>
        <mxCell id="9CqOGc1lMeXhtPVuXy3s-5" value="E4; 0,1,1" style="ellipse;whiteSpace=wrap;html=1;aspect=fixed;" vertex="1" parent="1">
          <mxGeometry x="120" y="260" width="80" height="80" as="geometry" />
        </mxCell>
        <mxCell id="9CqOGc1lMeXhtPVuXy3s-25" style="edgeStyle=orthogonalEdgeStyle;rounded=0;orthogonalLoop=1;jettySize=auto;html=1;entryX=0.5;entryY=1;entryDx=0;entryDy=0;" edge="1" parent="1" source="9CqOGc1lMeXhtPVuXy3s-6" target="9CqOGc1lMeXhtPVuXy3s-5">
          <mxGeometry relative="1" as="geometry" />
        </mxCell>
        <mxCell id="9CqOGc1lMeXhtPVuXy3s-30" style="edgeStyle=orthogonalEdgeStyle;rounded=0;orthogonalLoop=1;jettySize=auto;html=1;entryX=0.5;entryY=0;entryDx=0;entryDy=0;" edge="1" parent="1" source="9CqOGc1lMeXhtPVuXy3s-6" target="9CqOGc1lMeXhtPVuXy3s-10">
          <mxGeometry relative="1" as="geometry" />
        </mxCell>
        <mxCell id="9CqOGc1lMeXhtPVuXy3s-48" style="edgeStyle=orthogonalEdgeStyle;rounded=0;orthogonalLoop=1;jettySize=auto;html=1;entryX=0;entryY=0.5;entryDx=0;entryDy=0;" edge="1" parent="1" source="9CqOGc1lMeXhtPVuXy3s-6" target="9CqOGc1lMeXhtPVuXy3s-4">
          <mxGeometry relative="1" as="geometry" />
        </mxCell>
        <mxCell id="9CqOGc1lMeXhtPVuXy3s-6" value="E5; 0,1,2" style="ellipse;whiteSpace=wrap;html=1;aspect=fixed;" vertex="1" parent="1">
          <mxGeometry x="120" y="400" width="80" height="80" as="geometry" />
        </mxCell>
        <mxCell id="9CqOGc1lMeXhtPVuXy3s-37" style="edgeStyle=orthogonalEdgeStyle;rounded=0;orthogonalLoop=1;jettySize=auto;html=1;entryX=0.5;entryY=1;entryDx=0;entryDy=0;" edge="1" parent="1" source="9CqOGc1lMeXhtPVuXy3s-7" target="9CqOGc1lMeXhtPVuXy3s-4">
          <mxGeometry relative="1" as="geometry" />
        </mxCell>
        <mxCell id="9CqOGc1lMeXhtPVuXy3s-38" style="edgeStyle=orthogonalEdgeStyle;rounded=0;orthogonalLoop=1;jettySize=auto;html=1;entryX=0.5;entryY=0;entryDx=0;entryDy=0;" edge="1" parent="1" source="9CqOGc1lMeXhtPVuXy3s-7" target="9CqOGc1lMeXhtPVuXy3s-9">
          <mxGeometry relative="1" as="geometry" />
        </mxCell>
        <mxCell id="9CqOGc1lMeXhtPVuXy3s-52" style="rounded=0;orthogonalLoop=1;jettySize=auto;html=1;entryX=1;entryY=1;entryDx=0;entryDy=0;" edge="1" parent="1" source="9CqOGc1lMeXhtPVuXy3s-7" target="9CqOGc1lMeXhtPVuXy3s-5">
          <mxGeometry relative="1" as="geometry" />
        </mxCell>
        <mxCell id="9CqOGc1lMeXhtPVuXy3s-7" value="E6; 1,0,2" style="ellipse;whiteSpace=wrap;html=1;aspect=fixed;" vertex="1" parent="1">
          <mxGeometry x="280" y="540" width="80" height="80" as="geometry" />
        </mxCell>
        <mxCell id="9CqOGc1lMeXhtPVuXy3s-39" style="edgeStyle=orthogonalEdgeStyle;rounded=0;orthogonalLoop=1;jettySize=auto;html=1;" edge="1" parent="1" source="9CqOGc1lMeXhtPVuXy3s-9">
          <mxGeometry relative="1" as="geometry">
            <mxPoint x="320" y="620" as="targetPoint" />
          </mxGeometry>
        </mxCell>
        <mxCell id="9CqOGc1lMeXhtPVuXy3s-53" style="rounded=0;orthogonalLoop=1;jettySize=auto;html=1;entryX=1;entryY=1;entryDx=0;entryDy=0;" edge="1" parent="1" source="9CqOGc1lMeXhtPVuXy3s-9" target="9CqOGc1lMeXhtPVuXy3s-6">
          <mxGeometry relative="1" as="geometry" />
        </mxCell>
        <mxCell id="9CqOGc1lMeXhtPVuXy3s-55" style="edgeStyle=orthogonalEdgeStyle;rounded=0;orthogonalLoop=1;jettySize=auto;html=1;entryX=0.5;entryY=0;entryDx=0;entryDy=0;" edge="1" parent="1" source="9CqOGc1lMeXhtPVuXy3s-9" target="9CqOGc1lMeXhtPVuXy3s-11">
          <mxGeometry relative="1" as="geometry" />
        </mxCell>
        <mxCell id="9CqOGc1lMeXhtPVuXy3s-9" value="E7; 1,0,3" style="ellipse;whiteSpace=wrap;html=1;aspect=fixed;" vertex="1" parent="1">
          <mxGeometry x="280" y="680" width="80" height="80" as="geometry" />
        </mxCell>
        <mxCell id="9CqOGc1lMeXhtPVuXy3s-31" style="edgeStyle=orthogonalEdgeStyle;rounded=0;orthogonalLoop=1;jettySize=auto;html=1;" edge="1" parent="1" source="9CqOGc1lMeXhtPVuXy3s-10">
          <mxGeometry relative="1" as="geometry">
            <mxPoint x="160" y="480" as="targetPoint" />
          </mxGeometry>
        </mxCell>
        <mxCell id="9CqOGc1lMeXhtPVuXy3s-32" style="edgeStyle=orthogonalEdgeStyle;rounded=0;orthogonalLoop=1;jettySize=auto;html=1;entryX=0.5;entryY=0;entryDx=0;entryDy=0;" edge="1" parent="1" source="9CqOGc1lMeXhtPVuXy3s-10" target="9CqOGc1lMeXhtPVuXy3s-12">
          <mxGeometry relative="1" as="geometry" />
        </mxCell>
        <mxCell id="9CqOGc1lMeXhtPVuXy3s-49" style="edgeStyle=orthogonalEdgeStyle;rounded=0;orthogonalLoop=1;jettySize=auto;html=1;entryX=0;entryY=0.5;entryDx=0;entryDy=0;" edge="1" parent="1" source="9CqOGc1lMeXhtPVuXy3s-10" target="9CqOGc1lMeXhtPVuXy3s-7">
          <mxGeometry relative="1" as="geometry" />
        </mxCell>
        <mxCell id="9CqOGc1lMeXhtPVuXy3s-10" value="E8; 0,1,3" style="ellipse;whiteSpace=wrap;html=1;aspect=fixed;" vertex="1" parent="1">
          <mxGeometry x="120" y="540" width="80" height="80" as="geometry" />
        </mxCell>
        <mxCell id="9CqOGc1lMeXhtPVuXy3s-56" style="edgeStyle=orthogonalEdgeStyle;rounded=0;orthogonalLoop=1;jettySize=auto;html=1;" edge="1" parent="1" source="9CqOGc1lMeXhtPVuXy3s-11">
          <mxGeometry relative="1" as="geometry">
            <mxPoint x="320" y="760" as="targetPoint" />
          </mxGeometry>
        </mxCell>
        <mxCell id="9CqOGc1lMeXhtPVuXy3s-57" style="rounded=0;orthogonalLoop=1;jettySize=auto;html=1;entryX=1;entryY=1;entryDx=0;entryDy=0;" edge="1" parent="1" source="9CqOGc1lMeXhtPVuXy3s-11" target="9CqOGc1lMeXhtPVuXy3s-10">
          <mxGeometry relative="1" as="geometry" />
        </mxCell>
        <mxCell id="9CqOGc1lMeXhtPVuXy3s-11" value="E9; 1,0,4" style="ellipse;whiteSpace=wrap;html=1;aspect=fixed;" vertex="1" parent="1">
          <mxGeometry x="280" y="820" width="80" height="80" as="geometry" />
        </mxCell>
        <mxCell id="9CqOGc1lMeXhtPVuXy3s-33" style="edgeStyle=orthogonalEdgeStyle;rounded=0;orthogonalLoop=1;jettySize=auto;html=1;entryX=0.5;entryY=1;entryDx=0;entryDy=0;" edge="1" parent="1" source="9CqOGc1lMeXhtPVuXy3s-12" target="9CqOGc1lMeXhtPVuXy3s-10">
          <mxGeometry relative="1" as="geometry" />
        </mxCell>
        <mxCell id="9CqOGc1lMeXhtPVuXy3s-50" style="edgeStyle=orthogonalEdgeStyle;rounded=0;orthogonalLoop=1;jettySize=auto;html=1;entryX=0;entryY=0.5;entryDx=0;entryDy=0;" edge="1" parent="1" source="9CqOGc1lMeXhtPVuXy3s-12" target="9CqOGc1lMeXhtPVuXy3s-9">
          <mxGeometry relative="1" as="geometry" />
        </mxCell>
        <mxCell id="9CqOGc1lMeXhtPVuXy3s-12" value="E10; 0,1,4" style="ellipse;whiteSpace=wrap;html=1;aspect=fixed;" vertex="1" parent="1">
          <mxGeometry x="120" y="680" width="80" height="80" as="geometry" />
        </mxCell>
        <mxCell id="9CqOGc1lMeXhtPVuXy3s-58" value="p1=0.2&lt;div&gt;p2=0.8&lt;/div&gt;" style="text;html=1;align=center;verticalAlign=middle;resizable=0;points=[];autosize=1;strokeColor=none;fillColor=none;" vertex="1" parent="1">
          <mxGeometry x="405" y="350" width="60" height="40" as="geometry" />
        </mxCell>
        <mxCell id="9CqOGc1lMeXhtPVuXy3s-60" value="&lt;p style=&quot;font-size: 11px;&quot;&gt;&lt;span style=&quot;font-size: 11px; background-color: rgb(255, 255, 255); color: rgb(32, 33, 34); font-family: &amp;quot;palatino linotype&amp;quot;, &amp;quot;new athena unicode&amp;quot;, athena, gentium, code2000, serif; text-wrap: wrap;&quot;&gt;μ&#39;&lt;/span&gt;&lt;sub style=&quot;background-color: rgb(255, 255, 255); color: rgb(32, 33, 34); font-family: &amp;quot;palatino linotype&amp;quot;, &amp;quot;new athena unicode&amp;quot;, athena, gentium, code2000, serif; text-wrap: wrap;&quot;&gt;1&lt;/sub&gt;&lt;span style=&quot;font-size: 11px; background-color: rgb(255, 255, 255); color: rgb(32, 33, 34); font-family: &amp;quot;palatino linotype&amp;quot;, &amp;quot;new athena unicode&amp;quot;, athena, gentium, code2000, serif; text-wrap: wrap;&quot;&gt;&amp;nbsp;= 0.125&lt;br&gt;&lt;/span&gt;&lt;font style=&quot;font-size: 11px;&quot;&gt;&lt;span style=&quot;color: rgb(32, 33, 34); font-family: &amp;quot;palatino linotype&amp;quot;, &amp;quot;new athena unicode&amp;quot;, athena, gentium, code2000, serif; text-wrap: wrap; background-color: rgb(255, 255, 255);&quot;&gt;μ&#39;&lt;/span&gt;&lt;sub style=&quot;color: rgb(32, 33, 34); font-family: &amp;quot;palatino linotype&amp;quot;, &amp;quot;new athena unicode&amp;quot;, athena, gentium, code2000, serif; text-wrap: wrap;&quot;&gt;2&lt;/sub&gt;&lt;span style=&quot;color: rgb(32, 33, 34); font-family: &amp;quot;palatino linotype&amp;quot;, &amp;quot;new athena unicode&amp;quot;, athena, gentium, code2000, serif; text-wrap: wrap; background-color: rgb(255, 255, 255);&quot;&gt;&amp;nbsp;= 0.333&lt;/span&gt;&lt;/font&gt;&lt;/p&gt;" style="text;html=1;align=center;verticalAlign=middle;resizable=0;points=[];autosize=1;strokeColor=none;fillColor=none;spacing=0;" vertex="1" parent="1">
          <mxGeometry x="400" y="390" width="70" height="60" as="geometry" />
        </mxCell>
        <mxCell id="9CqOGc1lMeXhtPVuXy3s-64" value="&lt;span style=&quot;font-size:11.0pt;line-height:107%;&lt;br/&gt;font-family:&amp;quot;Calibri&amp;quot;,sans-serif;mso-ascii-theme-font:minor-latin;mso-fareast-font-family:&lt;br/&gt;Calibri;mso-fareast-theme-font:minor-latin;mso-hansi-theme-font:minor-latin;&lt;br/&gt;mso-bidi-font-family:&amp;quot;Times New Roman&amp;quot;;mso-bidi-theme-font:minor-bidi;&lt;br/&gt;mso-ansi-language:RU;mso-fareast-language:EN-US;mso-bidi-language:AR-SA&quot;&gt;λ=0.7&lt;/span&gt;" style="text;html=1;align=center;verticalAlign=middle;resizable=0;points=[];autosize=1;strokeColor=none;fillColor=none;" vertex="1" parent="1">
          <mxGeometry x="470" y="350" width="60" height="30" as="geometry" />
        </mxCell>
        <mxCell id="9CqOGc1lMeXhtPVuXy3s-67" value="&lt;span style=&quot;color: rgb(0, 0, 0); font-family: Helvetica; font-style: normal; font-variant-ligatures: normal; font-variant-caps: normal; font-weight: 400; letter-spacing: normal; orphans: 2; text-align: center; text-indent: 0px; text-transform: none; widows: 2; word-spacing: 0px; -webkit-text-stroke-width: 0px; white-space: nowrap; background-color: rgb(251, 251, 251); text-decoration-thickness: initial; text-decoration-style: initial; text-decoration-color: initial; float: none; display: inline !important;&quot;&gt;&lt;font style=&quot;font-size: 11px;&quot;&gt;p2*λ&lt;/font&gt;&lt;/span&gt;" style="text;whiteSpace=wrap;html=1;" vertex="1" parent="1">
          <mxGeometry x="200" y="128" width="20" height="30" as="geometry" />
        </mxCell>
        <mxCell id="9CqOGc1lMeXhtPVuXy3s-68" value="&lt;font style=&quot;font-size: 10px;&quot;&gt;&lt;span style=&quot;text-wrap: wrap; background-color: rgb(255, 255, 255); color: rgb(32, 33, 34); font-family: &amp;quot;palatino linotype&amp;quot;, &amp;quot;new athena unicode&amp;quot;, athena, gentium, code2000, serif;&quot;&gt;μ&#39;&lt;/span&gt;&lt;sub style=&quot;text-wrap: wrap; background-color: rgb(255, 255, 255); color: rgb(32, 33, 34); font-family: &amp;quot;palatino linotype&amp;quot;, &amp;quot;new athena unicode&amp;quot;, athena, gentium, code2000, serif;&quot;&gt;2&lt;/sub&gt;&lt;/font&gt;" style="text;html=1;align=center;verticalAlign=middle;resizable=0;points=[];autosize=1;strokeColor=none;fillColor=none;" vertex="1" parent="1">
          <mxGeometry x="250" y="123" width="40" height="30" as="geometry" />
        </mxCell>
        <mxCell id="9CqOGc1lMeXhtPVuXy3s-69" value="&lt;span style=&quot;color: rgb(0, 0, 0); font-family: Helvetica; font-size: 11px; font-style: normal; font-variant-ligatures: normal; font-variant-caps: normal; font-weight: 400; letter-spacing: normal; orphans: 2; text-align: center; text-indent: 0px; text-transform: none; widows: 2; word-spacing: 0px; -webkit-text-stroke-width: 0px; white-space: nowrap; background-color: rgb(251, 251, 251); text-decoration-thickness: initial; text-decoration-style: initial; text-decoration-color: initial; display: inline !important; float: none;&quot;&gt;λ&lt;/span&gt;" style="text;whiteSpace=wrap;html=1;" vertex="1" parent="1">
          <mxGeometry x="140" y="240" width="20" height="20" as="geometry" />
        </mxCell>
        <mxCell id="9CqOGc1lMeXhtPVuXy3s-77" value="&lt;span style=&quot;color: rgb(0, 0, 0); font-family: Helvetica; font-size: 11px; font-style: normal; font-variant-ligatures: normal; font-variant-caps: normal; font-weight: 400; letter-spacing: normal; orphans: 2; text-align: center; text-indent: 0px; text-transform: none; widows: 2; word-spacing: 0px; -webkit-text-stroke-width: 0px; white-space: nowrap; background-color: rgb(251, 251, 251); text-decoration-thickness: initial; text-decoration-style: initial; text-decoration-color: initial; display: inline !important; float: none;&quot;&gt;λ&lt;/span&gt;" style="text;whiteSpace=wrap;html=1;" vertex="1" parent="1">
          <mxGeometry x="325" y="380" width="20" height="20" as="geometry" />
        </mxCell>
        <mxCell id="9CqOGc1lMeXhtPVuXy3s-78" value="&lt;span style=&quot;color: rgb(0, 0, 0); font-family: Helvetica; font-style: normal; font-variant-ligatures: normal; font-variant-caps: normal; font-weight: 400; letter-spacing: normal; orphans: 2; text-align: center; text-indent: 0px; text-transform: none; widows: 2; word-spacing: 0px; -webkit-text-stroke-width: 0px; white-space: nowrap; background-color: rgb(251, 251, 251); text-decoration-thickness: initial; text-decoration-style: initial; text-decoration-color: initial; float: none; display: inline !important;&quot;&gt;&lt;font style=&quot;font-size: 11px;&quot;&gt;p1*λ&lt;/font&gt;&lt;/span&gt;" style="text;whiteSpace=wrap;html=1;" vertex="1" parent="1">
          <mxGeometry x="330" y="230" width="20" height="30" as="geometry" />
        </mxCell>
        <mxCell id="9CqOGc1lMeXhtPVuXy3s-79" value="&lt;font style=&quot;font-size: 10px;&quot;&gt;&lt;span style=&quot;text-wrap: wrap; background-color: rgb(255, 255, 255); color: rgb(32, 33, 34); font-family: &amp;quot;palatino linotype&amp;quot;, &amp;quot;new athena unicode&amp;quot;, athena, gentium, code2000, serif;&quot;&gt;μ&#39;&lt;/span&gt;&lt;sub style=&quot;text-wrap: wrap; background-color: rgb(255, 255, 255); color: rgb(32, 33, 34); font-family: &amp;quot;palatino linotype&amp;quot;, &amp;quot;new athena unicode&amp;quot;, athena, gentium, code2000, serif;&quot;&gt;1&lt;/sub&gt;&lt;/font&gt;" style="text;html=1;align=center;verticalAlign=middle;resizable=0;points=[];autosize=1;strokeColor=none;fillColor=none;" vertex="1" parent="1">
          <mxGeometry x="315" y="190" width="40" height="30" as="geometry" />
        </mxCell>
        <mxCell id="9CqOGc1lMeXhtPVuXy3s-82" value="&lt;span style=&quot;color: rgb(0, 0, 0); font-family: Helvetica; font-size: 11px; font-style: normal; font-variant-ligatures: normal; font-variant-caps: normal; font-weight: 400; letter-spacing: normal; orphans: 2; text-align: center; text-indent: 0px; text-transform: none; widows: 2; word-spacing: 0px; -webkit-text-stroke-width: 0px; white-space: nowrap; background-color: rgb(251, 251, 251); text-decoration-thickness: initial; text-decoration-style: initial; text-decoration-color: initial; display: inline !important; float: none;&quot;&gt;λ&lt;/span&gt;" style="text;whiteSpace=wrap;html=1;" vertex="1" parent="1">
          <mxGeometry x="325" y="520" width="20" height="20" as="geometry" />
        </mxCell>
        <mxCell id="9CqOGc1lMeXhtPVuXy3s-84" value="&lt;span style=&quot;color: rgb(0, 0, 0); font-family: Helvetica; font-size: 11px; font-style: normal; font-variant-ligatures: normal; font-variant-caps: normal; font-weight: 400; letter-spacing: normal; orphans: 2; text-align: center; text-indent: 0px; text-transform: none; widows: 2; word-spacing: 0px; -webkit-text-stroke-width: 0px; white-space: nowrap; background-color: rgb(251, 251, 251); text-decoration-thickness: initial; text-decoration-style: initial; text-decoration-color: initial; display: inline !important; float: none;&quot;&gt;λ&lt;/span&gt;" style="text;whiteSpace=wrap;html=1;" vertex="1" parent="1">
          <mxGeometry x="325" y="660" width="20" height="20" as="geometry" />
        </mxCell>
        <mxCell id="9CqOGc1lMeXhtPVuXy3s-86" value="&lt;span style=&quot;color: rgb(0, 0, 0); font-family: Helvetica; font-size: 11px; font-style: normal; font-variant-ligatures: normal; font-variant-caps: normal; font-weight: 400; letter-spacing: normal; orphans: 2; text-align: center; text-indent: 0px; text-transform: none; widows: 2; word-spacing: 0px; -webkit-text-stroke-width: 0px; white-space: nowrap; background-color: rgb(251, 251, 251); text-decoration-thickness: initial; text-decoration-style: initial; text-decoration-color: initial; display: inline !important; float: none;&quot;&gt;λ&lt;/span&gt;" style="text;whiteSpace=wrap;html=1;" vertex="1" parent="1">
          <mxGeometry x="325" y="800" width="20" height="20" as="geometry" />
        </mxCell>
        <mxCell id="9CqOGc1lMeXhtPVuXy3s-93" value="&lt;font style=&quot;font-size: 10px;&quot;&gt;&lt;span style=&quot;text-wrap: wrap; background-color: rgb(255, 255, 255); color: rgb(32, 33, 34); font-family: &amp;quot;palatino linotype&amp;quot;, &amp;quot;new athena unicode&amp;quot;, athena, gentium, code2000, serif;&quot;&gt;μ&#39;&lt;/span&gt;&lt;sub style=&quot;text-wrap: wrap; background-color: rgb(255, 255, 255); color: rgb(32, 33, 34); font-family: &amp;quot;palatino linotype&amp;quot;, &amp;quot;new athena unicode&amp;quot;, athena, gentium, code2000, serif;&quot;&gt;1&lt;/sub&gt;&lt;/font&gt;p2" style="text;html=1;align=center;verticalAlign=middle;resizable=0;points=[];autosize=1;strokeColor=none;fillColor=none;" vertex="1" parent="1">
          <mxGeometry x="185" y="180" width="50" height="30" as="geometry" />
        </mxCell>
        <mxCell id="9CqOGc1lMeXhtPVuXy3s-94" value="&lt;font style=&quot;font-size: 10px;&quot;&gt;&lt;span style=&quot;text-wrap: wrap; background-color: rgb(255, 255, 255); color: rgb(32, 33, 34); font-family: &amp;quot;palatino linotype&amp;quot;, &amp;quot;new athena unicode&amp;quot;, athena, gentium, code2000, serif;&quot;&gt;μ&#39;&lt;/span&gt;&lt;sub style=&quot;text-wrap: wrap; background-color: rgb(255, 255, 255); color: rgb(32, 33, 34); font-family: &amp;quot;palatino linotype&amp;quot;, &amp;quot;new athena unicode&amp;quot;, athena, gentium, code2000, serif;&quot;&gt;1&lt;/sub&gt;&lt;/font&gt;p2" style="text;html=1;align=center;verticalAlign=middle;resizable=0;points=[];autosize=1;strokeColor=none;fillColor=none;" vertex="1" parent="1">
          <mxGeometry x="185" y="320" width="50" height="30" as="geometry" />
        </mxCell>
        <mxCell id="9CqOGc1lMeXhtPVuXy3s-95" value="&lt;font style=&quot;font-size: 10px;&quot;&gt;&lt;span style=&quot;text-wrap: wrap; background-color: rgb(255, 255, 255); color: rgb(32, 33, 34); font-family: &amp;quot;palatino linotype&amp;quot;, &amp;quot;new athena unicode&amp;quot;, athena, gentium, code2000, serif;&quot;&gt;μ&#39;&lt;/span&gt;&lt;sub style=&quot;text-wrap: wrap; background-color: rgb(255, 255, 255); color: rgb(32, 33, 34); font-family: &amp;quot;palatino linotype&amp;quot;, &amp;quot;new athena unicode&amp;quot;, athena, gentium, code2000, serif;&quot;&gt;1&lt;/sub&gt;&lt;/font&gt;p2" style="text;html=1;align=center;verticalAlign=middle;resizable=0;points=[];autosize=1;strokeColor=none;fillColor=none;" vertex="1" parent="1">
          <mxGeometry x="185" y="460" width="50" height="30" as="geometry" />
        </mxCell>
        <mxCell id="9CqOGc1lMeXhtPVuXy3s-96" value="&lt;font style=&quot;font-size: 10px;&quot;&gt;&lt;span style=&quot;text-wrap: wrap; background-color: rgb(255, 255, 255); color: rgb(32, 33, 34); font-family: &amp;quot;palatino linotype&amp;quot;, &amp;quot;new athena unicode&amp;quot;, athena, gentium, code2000, serif;&quot;&gt;μ&#39;&lt;/span&gt;&lt;sub style=&quot;text-wrap: wrap; background-color: rgb(255, 255, 255); color: rgb(32, 33, 34); font-family: &amp;quot;palatino linotype&amp;quot;, &amp;quot;new athena unicode&amp;quot;, athena, gentium, code2000, serif;&quot;&gt;1&lt;/sub&gt;&lt;/font&gt;p2" style="text;html=1;align=center;verticalAlign=middle;resizable=0;points=[];autosize=1;strokeColor=none;fillColor=none;" vertex="1" parent="1">
          <mxGeometry x="185" y="600" width="50" height="30" as="geometry" />
        </mxCell>
        <mxCell id="9CqOGc1lMeXhtPVuXy3s-97" value="&lt;font style=&quot;font-size: 10px;&quot;&gt;&lt;span style=&quot;text-wrap: wrap; background-color: rgb(255, 255, 255); color: rgb(32, 33, 34); font-family: &amp;quot;palatino linotype&amp;quot;, &amp;quot;new athena unicode&amp;quot;, athena, gentium, code2000, serif;&quot;&gt;μ&#39;&lt;/span&gt;&lt;sub style=&quot;text-wrap: wrap; background-color: rgb(255, 255, 255); color: rgb(32, 33, 34); font-family: &amp;quot;palatino linotype&amp;quot;, &amp;quot;new athena unicode&amp;quot;, athena, gentium, code2000, serif;&quot;&gt;2&lt;/sub&gt;&lt;/font&gt;p1" style="text;html=1;align=center;verticalAlign=middle;resizable=0;points=[];autosize=1;strokeColor=none;fillColor=none;" vertex="1" parent="1">
          <mxGeometry x="240" y="270" width="50" height="30" as="geometry" />
        </mxCell>
        <mxCell id="9CqOGc1lMeXhtPVuXy3s-98" value="&lt;font style=&quot;font-size: 10px;&quot;&gt;&lt;span style=&quot;text-wrap: wrap; background-color: rgb(255, 255, 255); color: rgb(32, 33, 34); font-family: &amp;quot;palatino linotype&amp;quot;, &amp;quot;new athena unicode&amp;quot;, athena, gentium, code2000, serif;&quot;&gt;μ&#39;&lt;/span&gt;&lt;sub style=&quot;text-wrap: wrap; background-color: rgb(255, 255, 255); color: rgb(32, 33, 34); font-family: &amp;quot;palatino linotype&amp;quot;, &amp;quot;new athena unicode&amp;quot;, athena, gentium, code2000, serif;&quot;&gt;2&lt;/sub&gt;&lt;/font&gt;p1" style="text;html=1;align=center;verticalAlign=middle;resizable=0;points=[];autosize=1;strokeColor=none;fillColor=none;" vertex="1" parent="1">
          <mxGeometry x="240" y="410" width="50" height="30" as="geometry" />
        </mxCell>
        <mxCell id="9CqOGc1lMeXhtPVuXy3s-99" value="&lt;font style=&quot;font-size: 10px;&quot;&gt;&lt;span style=&quot;text-wrap: wrap; background-color: rgb(255, 255, 255); color: rgb(32, 33, 34); font-family: &amp;quot;palatino linotype&amp;quot;, &amp;quot;new athena unicode&amp;quot;, athena, gentium, code2000, serif;&quot;&gt;μ&#39;&lt;/span&gt;&lt;sub style=&quot;text-wrap: wrap; background-color: rgb(255, 255, 255); color: rgb(32, 33, 34); font-family: &amp;quot;palatino linotype&amp;quot;, &amp;quot;new athena unicode&amp;quot;, athena, gentium, code2000, serif;&quot;&gt;2&lt;/sub&gt;&lt;/font&gt;p1" style="text;html=1;align=center;verticalAlign=middle;resizable=0;points=[];autosize=1;strokeColor=none;fillColor=none;" vertex="1" parent="1">
          <mxGeometry x="240" y="550" width="50" height="30" as="geometry" />
        </mxCell>
        <mxCell id="9CqOGc1lMeXhtPVuXy3s-100" value="&lt;font style=&quot;font-size: 10px;&quot;&gt;&lt;span style=&quot;text-wrap: wrap; background-color: rgb(255, 255, 255); color: rgb(32, 33, 34); font-family: &amp;quot;palatino linotype&amp;quot;, &amp;quot;new athena unicode&amp;quot;, athena, gentium, code2000, serif;&quot;&gt;μ&#39;&lt;/span&gt;&lt;sub style=&quot;text-wrap: wrap; background-color: rgb(255, 255, 255); color: rgb(32, 33, 34); font-family: &amp;quot;palatino linotype&amp;quot;, &amp;quot;new athena unicode&amp;quot;, athena, gentium, code2000, serif;&quot;&gt;2&lt;/sub&gt;&lt;/font&gt;p1" style="text;html=1;align=center;verticalAlign=middle;resizable=0;points=[];autosize=1;strokeColor=none;fillColor=none;" vertex="1" parent="1">
          <mxGeometry x="240" y="690" width="50" height="30" as="geometry" />
        </mxCell>
        <mxCell id="9CqOGc1lMeXhtPVuXy3s-102" value="&lt;font style=&quot;font-size: 10px;&quot;&gt;&lt;span style=&quot;text-wrap: wrap; background-color: rgb(255, 255, 255); color: rgb(32, 33, 34); font-family: &amp;quot;palatino linotype&amp;quot;, &amp;quot;new athena unicode&amp;quot;, athena, gentium, code2000, serif;&quot;&gt;μ&#39;&lt;/span&gt;&lt;sub style=&quot;text-wrap: wrap; background-color: rgb(255, 255, 255); color: rgb(32, 33, 34); font-family: &amp;quot;palatino linotype&amp;quot;, &amp;quot;new athena unicode&amp;quot;, athena, gentium, code2000, serif;&quot;&gt;1&lt;/sub&gt;&lt;/font&gt;p1" style="text;html=1;align=center;verticalAlign=middle;resizable=0;points=[];autosize=1;strokeColor=none;fillColor=none;" vertex="1" parent="1">
          <mxGeometry x="315" y="340" width="50" height="30" as="geometry" />
        </mxCell>
        <mxCell id="9CqOGc1lMeXhtPVuXy3s-103" value="&lt;font style=&quot;font-size: 10px;&quot;&gt;&lt;span style=&quot;text-wrap: wrap; background-color: rgb(255, 255, 255); color: rgb(32, 33, 34); font-family: &amp;quot;palatino linotype&amp;quot;, &amp;quot;new athena unicode&amp;quot;, athena, gentium, code2000, serif;&quot;&gt;μ&#39;&lt;/span&gt;&lt;sub style=&quot;text-wrap: wrap; background-color: rgb(255, 255, 255); color: rgb(32, 33, 34); font-family: &amp;quot;palatino linotype&amp;quot;, &amp;quot;new athena unicode&amp;quot;, athena, gentium, code2000, serif;&quot;&gt;1&lt;/sub&gt;&lt;/font&gt;p1" style="text;html=1;align=center;verticalAlign=middle;resizable=0;points=[];autosize=1;strokeColor=none;fillColor=none;" vertex="1" parent="1">
          <mxGeometry x="315" y="480" width="50" height="30" as="geometry" />
        </mxCell>
        <mxCell id="9CqOGc1lMeXhtPVuXy3s-104" value="&lt;font style=&quot;font-size: 10px;&quot;&gt;&lt;span style=&quot;text-wrap: wrap; background-color: rgb(255, 255, 255); color: rgb(32, 33, 34); font-family: &amp;quot;palatino linotype&amp;quot;, &amp;quot;new athena unicode&amp;quot;, athena, gentium, code2000, serif;&quot;&gt;μ&#39;&lt;/span&gt;&lt;sub style=&quot;text-wrap: wrap; background-color: rgb(255, 255, 255); color: rgb(32, 33, 34); font-family: &amp;quot;palatino linotype&amp;quot;, &amp;quot;new athena unicode&amp;quot;, athena, gentium, code2000, serif;&quot;&gt;1&lt;/sub&gt;&lt;/font&gt;p1" style="text;html=1;align=center;verticalAlign=middle;resizable=0;points=[];autosize=1;strokeColor=none;fillColor=none;" vertex="1" parent="1">
          <mxGeometry x="315" y="620" width="50" height="30" as="geometry" />
        </mxCell>
        <mxCell id="9CqOGc1lMeXhtPVuXy3s-105" value="&lt;font style=&quot;font-size: 10px;&quot;&gt;&lt;span style=&quot;text-wrap: wrap; background-color: rgb(255, 255, 255); color: rgb(32, 33, 34); font-family: &amp;quot;palatino linotype&amp;quot;, &amp;quot;new athena unicode&amp;quot;, athena, gentium, code2000, serif;&quot;&gt;μ&#39;&lt;/span&gt;&lt;sub style=&quot;text-wrap: wrap; background-color: rgb(255, 255, 255); color: rgb(32, 33, 34); font-family: &amp;quot;palatino linotype&amp;quot;, &amp;quot;new athena unicode&amp;quot;, athena, gentium, code2000, serif;&quot;&gt;1&lt;/sub&gt;&lt;/font&gt;p1" style="text;html=1;align=center;verticalAlign=middle;resizable=0;points=[];autosize=1;strokeColor=none;fillColor=none;" vertex="1" parent="1">
          <mxGeometry x="315" y="760" width="50" height="30" as="geometry" />
        </mxCell>
        <mxCell id="9CqOGc1lMeXhtPVuXy3s-108" value="&lt;font style=&quot;font-size: 10px;&quot;&gt;&lt;span style=&quot;text-wrap: wrap; background-color: rgb(255, 255, 255); color: rgb(32, 33, 34); font-family: &amp;quot;palatino linotype&amp;quot;, &amp;quot;new athena unicode&amp;quot;, athena, gentium, code2000, serif;&quot;&gt;μ&#39;&lt;/span&gt;&lt;sub style=&quot;text-wrap: wrap; background-color: rgb(255, 255, 255); color: rgb(32, 33, 34); font-family: &amp;quot;palatino linotype&amp;quot;, &amp;quot;new athena unicode&amp;quot;, athena, gentium, code2000, serif;&quot;&gt;2&lt;/sub&gt;&lt;/font&gt;p2" style="text;html=1;align=center;verticalAlign=middle;resizable=0;points=[];autosize=1;strokeColor=none;fillColor=none;" vertex="1" parent="1">
          <mxGeometry x="115" y="200" width="50" height="30" as="geometry" />
        </mxCell>
        <mxCell id="9CqOGc1lMeXhtPVuXy3s-113" value="&lt;span style=&quot;color: rgb(0, 0, 0); font-family: Helvetica; font-size: 11px; font-style: normal; font-variant-ligatures: normal; font-variant-caps: normal; font-weight: 400; letter-spacing: normal; orphans: 2; text-align: center; text-indent: 0px; text-transform: none; widows: 2; word-spacing: 0px; -webkit-text-stroke-width: 0px; white-space: nowrap; background-color: rgb(251, 251, 251); text-decoration-thickness: initial; text-decoration-style: initial; text-decoration-color: initial; display: inline !important; float: none;&quot;&gt;λ&lt;/span&gt;" style="text;whiteSpace=wrap;html=1;" vertex="1" parent="1">
          <mxGeometry x="135" y="380" width="20" height="20" as="geometry" />
        </mxCell>
        <mxCell id="9CqOGc1lMeXhtPVuXy3s-114" value="&lt;font style=&quot;font-size: 10px;&quot;&gt;&lt;span style=&quot;text-wrap: wrap; background-color: rgb(255, 255, 255); color: rgb(32, 33, 34); font-family: &amp;quot;palatino linotype&amp;quot;, &amp;quot;new athena unicode&amp;quot;, athena, gentium, code2000, serif;&quot;&gt;μ&#39;&lt;/span&gt;&lt;sub style=&quot;text-wrap: wrap; background-color: rgb(255, 255, 255); color: rgb(32, 33, 34); font-family: &amp;quot;palatino linotype&amp;quot;, &amp;quot;new athena unicode&amp;quot;, athena, gentium, code2000, serif;&quot;&gt;2&lt;/sub&gt;&lt;/font&gt;p2" style="text;html=1;align=center;verticalAlign=middle;resizable=0;points=[];autosize=1;strokeColor=none;fillColor=none;" vertex="1" parent="1">
          <mxGeometry x="110" y="340" width="50" height="30" as="geometry" />
        </mxCell>
        <mxCell id="9CqOGc1lMeXhtPVuXy3s-115" value="&lt;span style=&quot;color: rgb(0, 0, 0); font-family: Helvetica; font-size: 11px; font-style: normal; font-variant-ligatures: normal; font-variant-caps: normal; font-weight: 400; letter-spacing: normal; orphans: 2; text-align: center; text-indent: 0px; text-transform: none; widows: 2; word-spacing: 0px; -webkit-text-stroke-width: 0px; white-space: nowrap; background-color: rgb(251, 251, 251); text-decoration-thickness: initial; text-decoration-style: initial; text-decoration-color: initial; display: inline !important; float: none;&quot;&gt;λ&lt;/span&gt;" style="text;whiteSpace=wrap;html=1;" vertex="1" parent="1">
          <mxGeometry x="140" y="520" width="20" height="20" as="geometry" />
        </mxCell>
        <mxCell id="9CqOGc1lMeXhtPVuXy3s-116" value="&lt;font style=&quot;font-size: 10px;&quot;&gt;&lt;span style=&quot;text-wrap: wrap; background-color: rgb(255, 255, 255); color: rgb(32, 33, 34); font-family: &amp;quot;palatino linotype&amp;quot;, &amp;quot;new athena unicode&amp;quot;, athena, gentium, code2000, serif;&quot;&gt;μ&#39;&lt;/span&gt;&lt;sub style=&quot;text-wrap: wrap; background-color: rgb(255, 255, 255); color: rgb(32, 33, 34); font-family: &amp;quot;palatino linotype&amp;quot;, &amp;quot;new athena unicode&amp;quot;, athena, gentium, code2000, serif;&quot;&gt;2&lt;/sub&gt;&lt;/font&gt;p2" style="text;html=1;align=center;verticalAlign=middle;resizable=0;points=[];autosize=1;strokeColor=none;fillColor=none;" vertex="1" parent="1">
          <mxGeometry x="115" y="480" width="50" height="30" as="geometry" />
        </mxCell>
        <mxCell id="9CqOGc1lMeXhtPVuXy3s-117" value="&lt;span style=&quot;color: rgb(0, 0, 0); font-family: Helvetica; font-size: 11px; font-style: normal; font-variant-ligatures: normal; font-variant-caps: normal; font-weight: 400; letter-spacing: normal; orphans: 2; text-align: center; text-indent: 0px; text-transform: none; widows: 2; word-spacing: 0px; -webkit-text-stroke-width: 0px; white-space: nowrap; background-color: rgb(251, 251, 251); text-decoration-thickness: initial; text-decoration-style: initial; text-decoration-color: initial; display: inline !important; float: none;&quot;&gt;λ&lt;/span&gt;" style="text;whiteSpace=wrap;html=1;" vertex="1" parent="1">
          <mxGeometry x="135" y="660" width="20" height="20" as="geometry" />
        </mxCell>
        <mxCell id="9CqOGc1lMeXhtPVuXy3s-118" value="&lt;font style=&quot;font-size: 10px;&quot;&gt;&lt;span style=&quot;text-wrap: wrap; background-color: rgb(255, 255, 255); color: rgb(32, 33, 34); font-family: &amp;quot;palatino linotype&amp;quot;, &amp;quot;new athena unicode&amp;quot;, athena, gentium, code2000, serif;&quot;&gt;μ&#39;&lt;/span&gt;&lt;sub style=&quot;text-wrap: wrap; background-color: rgb(255, 255, 255); color: rgb(32, 33, 34); font-family: &amp;quot;palatino linotype&amp;quot;, &amp;quot;new athena unicode&amp;quot;, athena, gentium, code2000, serif;&quot;&gt;2&lt;/sub&gt;&lt;/font&gt;p2" style="text;html=1;align=center;verticalAlign=middle;resizable=0;points=[];autosize=1;strokeColor=none;fillColor=none;" vertex="1" parent="1">
          <mxGeometry x="110" y="620" width="50" height="30" as="geometry" />
        </mxCell>
      </root>
    </mxGraphModel>
  </diagram>
</mxfile>
